<?xml version="1.0" standalone="no"?>
<!DOCTYPE svg PUBLIC "-//W3C//DTD SVG 20010904//EN"
 "http://www.w3.org/TR/2001/REC-SVG-20010904/DTD/svg10.dtd">
<svg version="1.0" xmlns="http://www.w3.org/2000/svg"
 width="512.000000pt" height="512.000000pt" viewBox="0 0 512.000000 512.000000"
 preserveAspectRatio="xMidYMid meet">
<metadata>
Created by potrace 1.14, written by Peter Selinger 2001-2017
</metadata>
<g transform="translate(0.000000,512.000000) scale(0.100000,-0.100000)"
fill="#000000" stroke="none">
<path d="M3110 4990 c-19 -10 -43 -16 -52 -15 -9 2 -19 -3 -22 -10 -3 -8 -26
-24 -51 -36 -25 -12 -45 -27 -45 -35 0 -8 -3 -13 -7 -12 -10 1 -46 -13 -53
-22 -15 -17 -69 -44 -92 -45 -15 -1 -33 -6 -40 -12 -7 -6 -83 -13 -168 -16
-165 -6 -174 -7 -205 -23 -11 -6 -39 -10 -62 -9 -24 0 -43 -3 -43 -8 0 -4 -6
-7 -12 -6 -15 3 -78 -10 -93 -19 -5 -4 -19 -7 -30 -7 -11 0 -26 -4 -32 -8 -7
-5 -17 -5 -23 -2 -5 3 -10 3 -10 -2 0 -9 -48 -33 -67 -33 -7 0 -13 -5 -13 -10
0 -6 -12 -16 -27 -22 -16 -7 -40 -20 -55 -31 -16 -10 -28 -15 -28 -10 0 4 -5
0 -11 -10 -6 -9 -14 -15 -20 -12 -5 4 -9 1 -9 -4 0 -6 -7 -11 -15 -11 -8 0
-23 -9 -32 -20 -10 -11 -23 -20 -30 -20 -6 0 -17 -8 -22 -17 -6 -10 -11 -14
-11 -9 0 5 -13 -6 -30 -24 -16 -18 -30 -30 -30 -26 0 8 -18 -6 -62 -46 -16
-16 -33 -28 -36 -28 -4 0 -13 -9 -20 -20 -7 -12 -17 -18 -22 -15 -6 3 -10 -1
-10 -10 0 -8 -10 -20 -22 -25 -13 -5 -19 -9 -13 -9 5 -1 -17 -26 -50 -58 -33
-31 -59 -60 -57 -65 1 -4 -2 -8 -8 -8 -5 0 -10 -6 -10 -14 0 -8 -3 -16 -7 -18
-14 -6 -88 -110 -85 -119 1 -5 -5 -9 -14 -9 -8 0 -12 -4 -9 -10 6 -10 -12 -51
-27 -61 -5 -3 -11 -16 -13 -29 -2 -13 -8 -26 -13 -29 -10 -7 -26 -43 -24 -53
1 -5 -3 -8 -10 -8 -6 0 -9 -3 -5 -6 3 -3 1 -11 -4 -18 -32 -39 -57 -61 -69
-64 -8 -2 -17 -7 -20 -10 -3 -4 -16 -8 -30 -10 -47 -5 -50 -5 -50 -12 0 -4
-24 -5 -52 -3 -150 11 -173 10 -185 -6 -7 -9 -13 -12 -13 -8 0 5 -15 -2 -32
-15 -18 -13 -35 -23 -38 -24 -19 -3 -39 -18 -34 -25 3 -5 1 -9 -4 -9 -5 0 -9
-7 -9 -15 0 -8 5 -15 11 -15 7 0 7 -3 1 -8 -12 -8 -14 -192 -3 -192 5 0 8 -20
8 -44 0 -25 5 -48 10 -51 6 -4 8 -11 5 -16 -4 -5 -1 -9 5 -9 7 0 9 -8 5 -20
-4 -12 -2 -20 4 -20 6 0 10 -13 9 -29 -1 -16 4 -36 11 -44 12 -15 23 -59 25
-102 1 -11 7 -24 13 -30 7 -5 15 -21 17 -35 3 -14 5 -25 6 -25 1 0 3 -11 4
-23 2 -13 7 -27 13 -30 10 -7 24 -54 24 -84 0 -10 4 -18 9 -18 5 0 7 -9 5 -20
-2 -11 0 -20 4 -20 7 0 8 -41 1 -47 -8 -8 -4 -89 5 -95 7 -5 7 -8 0 -8 -12 0
-14 -164 -3 -176 4 -3 3 -14 -1 -23 -5 -9 -9 -19 -10 -23 -1 -5 -1 -9 -2 -10
0 -2 -3 -14 -6 -28 -6 -33 -11 -54 -13 -60 -1 -3 -2 -8 -1 -12 0 -4 -6 -22
-14 -41 -8 -19 -11 -37 -8 -40 3 -4 1 -12 -4 -19 -6 -7 -11 -29 -12 -48 -4
-64 -5 -69 -13 -64 -9 6 -10 0 -12 -66 -1 -25 -4 -49 -7 -55 -4 -5 -6 -39 -5
-75 1 -36 -3 -77 -10 -91 -7 -15 -10 -29 -7 -33 4 -3 2 -6 -3 -6 -14 0 -8
-221 6 -230 6 -4 13 -25 16 -46 6 -64 10 -78 24 -104 8 -14 13 -31 12 -37 -2
-7 2 -13 9 -13 6 0 8 -7 5 -15 -3 -9 1 -18 10 -22 13 -5 13 -7 2 -14 -10 -7
-11 -9 0 -9 7 0 11 -4 7 -9 -3 -5 -1 -12 4 -16 6 -3 7 -13 4 -22 -4 -10 -2
-14 5 -9 7 4 10 -4 10 -22 -1 -16 3 -35 8 -43 5 -8 9 -21 11 -29 1 -8 7 -16
13 -18 5 -2 8 -7 5 -12 -3 -5 2 -16 11 -24 8 -9 13 -16 9 -16 -4 0 1 -7 9 -16
9 -8 16 -21 16 -29 0 -7 7 -15 15 -19 8 -3 15 -9 14 -13 -4 -22 3 -33 19 -33
14 0 15 -2 2 -10 -13 -8 -13 -10 1 -10 9 0 22 -7 29 -15 7 -8 17 -12 23 -8 6
3 7 1 3 -6 -4 -6 -12 -9 -17 -6 -5 4 -9 -1 -9 -10 0 -9 3 -14 8 -11 4 2 18 -2
32 -11 14 -8 17 -12 8 -9 -10 3 -20 1 -23 -5 -4 -5 -3 -9 2 -8 21 4 33 -3 44
-22 7 -13 7 -19 1 -15 -6 3 -13 2 -16 -2 -3 -5 6 -9 19 -8 14 0 25 -2 25 -7 0
-4 7 -21 15 -37 13 -25 19 -29 34 -21 14 8 23 5 38 -12 11 -12 18 -28 16 -34
-3 -7 0 -13 6 -13 6 0 11 7 11 15 0 8 4 15 10 15 5 0 7 -6 4 -14 -3 -8 0 -17
5 -21 6 -3 9 -11 6 -16 -4 -5 3 -5 18 0 29 11 42 3 25 -16 -9 -11 -7 -12 7 -7
14 6 16 4 10 -7 -6 -11 -5 -12 6 -2 7 7 18 13 23 13 6 0 4 -5 -4 -10 -9 -6
-10 -10 -3 -10 6 0 14 -8 16 -18 4 -16 5 -16 6 1 1 21 19 23 27 2 4 -8 11 -12
18 -8 6 4 5 0 -2 -9 -11 -14 -10 -16 13 -13 20 2 25 -1 20 -14 -3 -8 -3 -12 1
-8 4 4 13 -1 21 -11 8 -9 11 -11 7 -3 -4 9 -3 12 4 7 6 -4 8 -14 5 -23 -4 -11
-3 -14 5 -9 7 4 12 2 12 -3 0 -6 9 -11 21 -11 11 0 18 -4 15 -9 -4 -5 8 -12
25 -16 17 -4 32 -12 35 -19 5 -13 10 -15 62 -20 17 -1 35 -6 39 -9 3 -4 15 -7
25 -7 10 0 18 -4 18 -8 0 -4 12 -7 28 -6 15 1 32 -1 37 -5 6 -3 21 -6 35 -7
38 -3 71 -12 85 -24 8 -7 16 -7 19 -2 4 6 21 7 43 1 21 -5 62 -9 91 -9 28 0
52 -4 52 -8 0 -4 17 -7 38 -6 20 1 37 3 37 4 0 9 102 7 113 -2 9 -8 15 -9 20
-1 4 7 53 11 127 12 114 1 169 6 187 17 4 3 8 0 8 -5 0 -14 36 -14 62 0 15 8
19 8 14 0 -5 -8 0 -8 16 -2 13 4 32 5 43 1 11 -4 29 -4 41 0 11 5 28 4 37 -1
11 -7 17 -6 17 1 0 6 4 9 9 6 5 -4 22 -1 38 5 15 7 51 13 78 14 28 0 55 4 60
7 6 3 22 5 38 4 15 -1 27 2 27 7 0 4 9 3 19 -3 12 -6 21 -6 23 0 2 5 14 11 28
12 14 2 31 8 38 15 16 15 71 -2 73 -23 1 -8 2 -17 4 -21 14 -51 18 -62 24 -59
4 3 8 -7 9 -20 4 -53 11 -54 280 -54 209 0 252 2 262 15 7 8 15 13 19 10 4 -2
33 9 64 25 31 16 57 26 57 23 0 -3 8 1 18 9 9 9 27 19 40 22 12 4 22 12 22 17
0 5 7 9 15 9 8 0 15 5 15 11 0 5 4 8 10 4 5 -3 18 3 30 15 11 11 23 20 28 20
4 0 25 17 47 38 22 21 60 50 85 65 25 15 42 27 38 27 -5 0 2 11 14 25 11 13
25 22 29 20 4 -3 10 4 14 15 3 11 11 20 16 20 5 0 9 7 9 16 0 8 5 12 11 8 7
-4 10 2 8 17 -2 13 1 30 5 38 6 10 5 12 -2 7 -7 -4 -12 -2 -12 3 0 6 -6 10
-12 8 -7 -1 -12 6 -12 15 1 10 -2 18 -6 18 -4 0 -10 7 -14 15 -3 8 0 14 7 12
7 -1 11 3 10 9 -1 6 9 10 21 9 21 -3 24 1 22 31 -1 32 0 33 20 19 21 -13 21
-13 10 10 -6 13 -15 21 -20 18 -5 -4 -6 -1 -2 6 4 6 12 8 18 5 7 -5 9 -1 5 9
-4 11 -1 17 9 17 9 0 12 -5 8 -12 -5 -7 -3 -8 5 -3 9 5 10 10 2 18 -7 7 -5 14
6 22 16 12 31 61 15 51 -4 -2 -8 4 -8 14 0 14 3 16 13 8 8 -6 16 -8 20 -4 3 3
2 6 -4 6 -6 0 -13 7 -16 14 -4 11 -1 13 11 9 14 -6 15 -4 6 8 -15 18 -15 69 0
69 6 0 5 4 -3 9 -9 6 -10 11 -2 15 6 4 8 12 5 18 -5 7 -2 9 7 6 10 -4 15 1 15
13 0 11 -5 19 -10 19 -5 0 -1 6 10 14 16 13 17 15 3 21 -13 5 -19 53 -8 75 1
3 3 10 3 15 1 6 8 21 15 34 9 17 10 21 1 16 -9 -6 -9 -2 -1 14 8 15 9 21 1 21
-6 0 -8 5 -4 12 4 7 7 30 6 52 -3 57 -3 57 -1 96 1 19 4 39 7 45 10 16 9 185
-1 185 -5 0 -7 7 -3 15 3 8 1 15 -5 15 -6 0 -7 5 -3 12 10 16 12 78 3 78 -4 0
-3 15 1 34 4 19 4 38 -1 43 -4 4 -9 25 -11 46 -1 20 -5 37 -8 37 -3 0 -5 41
-5 90 1 50 -2 90 -7 90 -4 0 -6 14 -4 30 2 17 -1 30 -7 30 -5 0 -4 7 4 16 10
13 10 17 0 24 -8 4 -11 12 -7 18 3 5 -1 15 -9 22 -12 10 -13 16 -4 26 6 8 7
14 2 14 -5 0 -8 25 -7 55 1 30 -1 55 -4 55 -4 0 -7 32 -7 71 1 49 -3 73 -12
76 -8 3 -10 11 -5 21 10 22 8 68 -4 84 -11 16 -11 38 -1 56 5 7 3 12 -3 12 -7
0 -8 6 -2 16 5 9 6 32 2 50 -5 21 -4 34 2 34 7 0 7 4 0 13 -6 7 -7 19 -3 26 5
7 5 28 1 47 -4 19 -4 34 1 34 4 0 6 7 3 15 -4 8 -2 15 2 15 10 0 12 28 17 193
2 91 1 107 -13 107 -13 0 -13 1 0 10 12 8 12 10 1 10 -8 0 -12 3 -8 6 3 3 -6
26 -19 50 -14 25 -22 49 -19 54 3 6 2 10 -3 10 -9 0 -25 37 -23 53 1 4 -3 7
-9 7 -6 0 -9 3 -8 8 2 11 -20 59 -31 66 -5 3 -12 19 -16 34 -9 42 -52 86 -88
90 -4 1 -15 8 -23 17 -9 8 -25 15 -37 16 -12 0 -43 1 -70 2 -26 1 -47 -1 -47
-4 0 -11 -49 -28 -69 -24 -24 4 -27 7 -124 101 -40 39 -71 76 -69 83 2 6 0 10
-6 9 -12 -4 -92 83 -86 94 3 4 -1 8 -8 8 -8 0 -19 12 -26 28 -21 48 -56 91
-84 103 -16 6 -28 17 -28 25 0 7 -6 17 -14 21 -11 7 -10 18 5 68 9 33 18 56
19 50 0 -5 8 2 16 18 8 15 19 27 25 27 6 0 8 4 5 9 -3 4 2 15 12 24 18 16 21
47 7 79 -4 10 -11 16 -15 13 -4 -3 -10 2 -14 10 -3 8 -12 15 -21 15 -8 0 -15
4 -15 10 0 5 -7 7 -15 4 -8 -4 -15 -1 -15 5 0 5 -22 13 -50 17 -27 4 -50 10
-50 14 0 5 -9 6 -20 3 -11 -3 -20 -1 -20 5 0 6 -8 9 -17 8 -10 -2 -21 1 -24 6
-3 5 -12 10 -20 11 -26 4 -54 32 -57 57 -1 14 -3 31 -4 39 -1 8 -9 30 -19 50
-10 22 -14 43 -9 56 5 14 2 25 -12 36 -10 10 -18 21 -16 25 3 13 -22 57 -41
71 -21 16 -39 15 -81 -7z m1384 -4061 c-3 -5 -11 -9 -17 -8 -8 0 -8 2 1 6 10
4 10 8 0 21 -12 15 -11 16 4 3 10 -7 15 -17 12 -22z m-82 -128 c8 11 9 11 6 1
-4 -16 -22 -18 -24 -3 -2 8 -1 7 3 0 4 -8 8 -7 15 2z m-3324 -106 c-3 -3 -9 2
-12 12 -6 14 -5 15 5 6 7 -7 10 -15 7 -18z"/>
<path d="M988 783 c7 -3 16 -2 19 1 4 3 -2 6 -13 5 -11 0 -14 -3 -6 -6z"/>
<path d="M1105 681 c-6 -10 11 -24 33 -27 10 -2 8 3 -4 17 -20 22 -21 22 -29
10z"/>
</g>
</svg>
